<?xml version="1.0" encoding="UTF-8"?>
<svg id="Ebene_2" data-name="Ebene 2" xmlns="http://www.w3.org/2000/svg" xmlns:xlink="http://www.w3.org/1999/xlink" viewBox="0 0 355.51 81.95">
  <defs>
    <style>
      .cls-1, .cls-2, .cls-3 {
        fill: none;
      }

      .cls-2 {
        clip-path: url(#clippath-1);
      }

      .cls-4 {
        fill: #1e1e1e;
      }

      .cls-5 {
        fill: url(#Unbenannter_Verlauf_3-4);
      }

      .cls-6 {
        fill: url(#Unbenannter_Verlauf_3-3);
      }

      .cls-7 {
        fill: url(#Unbenannter_Verlauf_3-2);
      }

      .cls-8 {
        fill: url(#Unbenannter_Verlauf_3);
      }

      .cls-3 {
        clip-path: url(#clippath);
      }
    </style>
    <clipPath id="clippath">
      <rect class="cls-1" y="0" width="355.51" height="81.95"/>
    </clipPath>
    <linearGradient id="Unbenannter_Verlauf_3" data-name="Unbenannter Verlauf 3" x1="120.78" y1="33.1" x2="150.92" y2="33.1" gradientUnits="userSpaceOnUse">
      <stop offset="0" stop-color="#dd45d6"/>
      <stop offset="1" stop-color="#9444e0"/>
    </linearGradient>
    <clipPath id="clippath-1">
      <path class="cls-8" d="m133.17,29.79c-.93-.32-1.9-.49-2.89-.49-5.24,0-9.5,4.62-9.5,10.31s4.25,10.31,9.5,10.31,9.5-4.62,9.5-10.31c0-2.18-.64-4.31-1.87-6.12l13.01-13.01-4.22-4.22-13.53,13.53Z"/>
    </clipPath>
    <linearGradient id="Unbenannter_Verlauf_3-2" data-name="Unbenannter Verlauf 3" x1="120.78" y1="33.09" x2="150.91" y2="33.09" xlink:href="#Unbenannter_Verlauf_3"/>
    <linearGradient id="Unbenannter_Verlauf_3-3" data-name="Unbenannter Verlauf 3" x1="144.11" y1="16.55" x2="156.6" y2="16.55" xlink:href="#Unbenannter_Verlauf_3"/>
    <linearGradient id="Unbenannter_Verlauf_3-4" data-name="Unbenannter Verlauf 3" x1="143.57" y1="3.26" x2="150.08" y2="3.26" xlink:href="#Unbenannter_Verlauf_3"/>
  </defs>
  <g id="Ebene_1-2" data-name="Ebene 1">
    <g>
      <g class="cls-3">
        <g>
          <path class="cls-4" d="m2.72,27.47c1.71-3.27,4.3-6,7.47-7.87,3.21-1.88,6.87-2.85,10.59-2.8,3.49-.09,6.95.77,9.99,2.48,2.63,1.46,4.82,3.62,6.32,6.24v-8h7.35v43.82h-7.35v-8.16c-1.54,2.66-3.76,4.85-6.44,6.36-3.03,1.73-6.47,2.6-9.95,2.52-3.72.05-7.37-.95-10.55-2.88-3.18-1.95-5.75-4.75-7.43-8.07-1.86-3.66-2.79-7.72-2.72-11.83-.09-4.1.84-8.15,2.72-11.79m32.38,3.24c-1.24-2.35-3.11-4.3-5.4-5.64-2.27-1.31-4.85-1.98-7.48-1.96-2.6-.03-5.17.63-7.43,1.92-2.28,1.32-4.14,3.26-5.36,5.6-1.38,2.66-2.07,5.63-2,8.64-.07,3.04.61,6.05,2,8.75,1.22,2.36,3.07,4.32,5.36,5.68,2.26,1.31,4.83,1.98,7.44,1.95,2.62.03,5.2-.65,7.48-1.96,2.3-1.34,4.17-3.31,5.4-5.68,1.38-2.68,2.07-5.66,2-8.67.07-3-.62-5.97-2-8.63"/>
          <path class="cls-4" d="m70.59,19.28c3-1.68,6.39-2.54,9.83-2.48,3.73-.05,7.41.91,10.63,2.8,3.16,1.88,5.74,4.61,7.43,7.88,1.87,3.64,2.81,7.7,2.72,11.79.07,4.11-.86,8.17-2.72,11.83-3.43,6.81-10.45,11.06-18.07,10.95-3.48.08-6.92-.78-9.95-2.48-2.68-1.48-4.9-3.67-6.43-6.32v8.08h-7.28V2.16h7.28v23.5c1.57-2.69,3.83-4.9,6.56-6.4m21.19,11.35c-1.23-2.34-3.1-4.29-5.4-5.6-2.28-1.28-4.86-1.94-7.47-1.92-2.6-.02-5.15.66-7.4,1.96-2.31,1.35-4.19,3.31-5.44,5.68-1.4,2.64-2.1,5.6-2.04,8.59-.07,3.02.63,6,2.04,8.67,1.25,2.36,3.13,4.33,5.44,5.68,2.25,1.3,4.8,1.98,7.4,1.96,2.62.03,5.2-.65,7.47-1.96,2.3-1.34,4.17-3.31,5.4-5.68,1.39-2.71,2.07-5.71,2-8.75.07-3-.62-5.97-2-8.64"/>
          <path class="cls-4" d="m168.44,60.32c-2.49-1.01-4.67-2.67-6.32-4.8-1.54-2.05-2.44-4.51-2.56-7.08h7.52c.19,2.15,1.32,4.11,3.08,5.36,2.12,1.47,4.66,2.2,7.23,2.08,2.33.13,4.63-.52,6.55-1.84,1.51-1.06,2.41-2.79,2.4-4.64.06-1.81-.94-3.48-2.57-4.27-2.52-1.22-5.18-2.15-7.92-2.76-2.71-.67-5.37-1.54-7.95-2.6-2.04-.87-3.85-2.21-5.28-3.92-1.54-1.94-2.32-4.37-2.2-6.83,0-2.21.69-4.37,2-6.16,1.46-1.96,3.42-3.5,5.68-4.44,2.65-1.13,5.51-1.69,8.39-1.64,4.85,0,8.77,1.23,11.75,3.68,3,2.49,4.76,6.17,4.8,10.07h-7.28c-.09-2.15-1.09-4.16-2.76-5.52-1.94-1.47-4.33-2.2-6.76-2.08-2.2-.12-4.39.47-6.24,1.68-1.47.98-2.35,2.63-2.32,4.4-.04,1.33.46,2.62,1.4,3.56,1.01.98,2.2,1.74,3.52,2.24,1.93.73,3.89,1.35,5.88,1.88,2.61.68,5.17,1.52,7.67,2.52,1.96.82,3.7,2.09,5.08,3.72,1.48,1.83,2.26,4.12,2.2,6.47.03,2.31-.67,4.58-2,6.47-1.43,2-3.38,3.56-5.64,4.52-2.64,1.13-5.48,1.69-8.35,1.64-3.1.05-6.17-.53-9.03-1.72"/>
          <path class="cls-4" d="m241.43,17.51l-26.38,64.44h-7.52l8.64-21.1-17.67-43.33h8.07l13.75,35.5,13.59-35.5h7.52Z"/>
          <path class="cls-4" d="m283,21.55c3.3,3.23,4.96,7.88,4.96,13.95v25.82h-7.2v-24.78c0-4.37-1.09-7.71-3.28-10.03-2.35-2.39-5.61-3.65-8.95-3.48-3.43-.16-6.76,1.15-9.15,3.6-2.27,2.4-3.4,5.89-3.4,10.47v24.22h-7.27V17.51h7.27v6.24c1.44-2.24,3.48-4.04,5.88-5.2,2.55-1.24,5.36-1.87,8.2-1.84,5.33,0,9.65,1.61,12.95,4.84"/>
          <path class="cls-4" d="m299.87,27.47c1.72-3.29,4.34-6.02,7.55-7.88,3.37-1.9,7.2-2.87,11.07-2.8,5.38,0,9.82,1.31,13.31,3.92,3.53,2.68,5.99,6.54,6.92,10.87h-7.84c-.67-2.55-2.21-4.79-4.36-6.32-2.36-1.61-5.18-2.42-8.03-2.32-3.83-.14-7.52,1.43-10.07,4.28-2.56,2.85-3.84,6.89-3.84,12.11,0,5.28,1.28,9.35,3.84,12.23,2.54,2.87,6.24,4.46,10.07,4.32,2.83.1,5.63-.68,7.99-2.24,2.17-1.55,3.73-3.82,4.4-6.4h7.84c-1.05,4.28-3.53,8.08-7.03,10.75-3.52,2.7-7.92,4.05-13.2,4.05-3.87.07-7.7-.89-11.07-2.8-3.22-1.86-5.84-4.61-7.55-7.91-1.88-3.71-2.82-7.83-2.72-11.99-.1-4.12.84-8.2,2.72-11.87"/>
          <path class="cls-4" d="m347.2,60.36c-1.94-1.93-1.95-5.07-.02-7.01.94-.94,2.21-1.47,3.54-1.46,1.29-.02,2.52.5,3.4,1.44,1.86,1.97,1.86,5.06,0,7.04-.88.94-2.11,1.46-3.4,1.44-1.32.03-2.59-.49-3.52-1.44"/>
          <path class="cls-4" d="m144.17,33.51c.54,1.9.8,3.86.77,5.83.1,3.12-.63,6.21-2.12,8.95-1.29,2.33-3.22,4.24-5.56,5.52-2.26,1.22-4.79,1.85-7.35,1.84-2.51.03-4.99-.59-7.2-1.8-2.25-1.27-4.07-3.17-5.24-5.48-1.39-2.8-2.06-5.91-1.96-9.03-.1-3.11.59-6.18,2-8.95,1.19-2.31,3.04-4.22,5.32-5.48,2.25-1.21,4.76-1.83,7.32-1.8.99,0,1.97.09,2.94.27l5.24-5.24c-2.6-.91-5.34-1.37-8.1-1.35-3.93-.06-7.81.89-11.27,2.76-3.35,1.83-6.11,4.57-7.96,7.91-1.99,3.64-3,7.73-2.91,11.88-.09,4.16.89,8.28,2.84,11.95,1.8,3.34,4.52,6.1,7.84,7.95,3.41,1.89,7.26,2.85,11.15,2.8,3.96.05,7.87-.92,11.35-2.8,3.39-1.85,6.2-4.6,8.12-7.95,2.05-3.64,3.09-7.77,3-11.95.08-3.96-.84-7.88-2.65-11.39l-5.56,5.56Z"/>
        </g>
      </g>
      <g>
        <path class="cls-8" d="m133.17,29.79c-.93-.32-1.9-.49-2.89-.49-5.24,0-9.5,4.62-9.5,10.31s4.25,10.31,9.5,10.31,9.5-4.62,9.5-10.31c0-2.18-.64-4.31-1.87-6.12l13.01-13.01-4.22-4.22-13.53,13.53Z"/>
        <g class="cls-2">
          <rect class="cls-7" x="120.78" y="16.26" width="30.13" height="33.66"/>
        </g>
      </g>
      <path class="cls-6" d="m144.12,16.55c0,3.45,2.79,6.24,6.24,6.24,3.45,0,6.24-2.79,6.24-6.24s-2.79-6.24-6.24-6.24c0,0,0,0,0,0-3.45,0-6.24,2.79-6.24,6.24h0"/>
      <path class="cls-5" d="m146.83,0c-1.8,0-3.26,1.46-3.26,3.26s1.46,3.26,3.26,3.26c1.8,0,3.26-1.46,3.26-3.26h0C150.08,1.46,148.63,0,146.83,0c0,0,0,0,0,0Z"/>
    </g>
  </g>
</svg>