<svg xmlns="http://www.w3.org/2000/svg" xmlns:xlink="http://www.w3.org/1999/xlink" width="58.155" height="70.129" viewBox="0 0 58.155 70.129"><defs><style>.a{fill:url(#a);}.b{clip-path:url(#b);}.c{fill:#fff;}</style><linearGradient id="a" x1="0.5" x2="0.5" y2="1" gradientUnits="objectBoundingBox"><stop offset="0" stop-color="#9444e0"/><stop offset="1" stop-color="#dd45d6"/></linearGradient><clipPath id="b"><path class="a" d="M28.81.026,4.517,4.713A5.535,5.535,0,0,0,.009,10.434L2.368,53.107a5.516,5.516,0,0,0,2.874,4.53L27.46,69.784a2.823,2.823,0,0,0,2.683.012L52.872,57.629a5.516,5.516,0,0,0,2.918-4.554l2.358-42.642a5.535,5.535,0,0,0-4.508-5.721L29.346.026a1.408,1.408,0,0,0-.535,0" transform="translate(0)"/></clipPath></defs><g transform="translate(459 -1667)"><g class="b" transform="translate(-459 1667)"><rect class="a" width="58.443" height="70.244" transform="translate(-0.144)"/></g><path class="c" d="M59.059,82.936a10.725,10.725,0,0,1,4.065-4.282,11.151,11.151,0,0,1,5.761-1.522,10.577,10.577,0,0,1,5.435,1.348,8.988,8.988,0,0,1,3.435,3.391V77.523h4v23.825h-4V96.914a9.325,9.325,0,0,1-3.5,3.456,10.469,10.469,0,0,1-5.413,1.37,10.8,10.8,0,0,1-5.739-1.565,10.966,10.966,0,0,1-4.043-4.391,13.67,13.67,0,0,1-1.478-6.434,13.383,13.383,0,0,1,1.478-6.413M76.667,84.7a7.684,7.684,0,0,0-2.935-3.065,8.322,8.322,0,0,0-8.108-.022,7.567,7.567,0,0,0-2.913,3.044,9.683,9.683,0,0,0-1.087,4.7,9.9,9.9,0,0,0,1.087,4.76A7.683,7.683,0,0,0,65.624,97.2a7.87,7.87,0,0,0,4.043,1.065A7.988,7.988,0,0,0,73.732,97.2a7.644,7.644,0,0,0,2.935-3.087,9.817,9.817,0,0,0,1.087-4.717,9.693,9.693,0,0,0-1.087-4.7" transform="translate(-499.589 1612.628)"/></g></svg>