<svg id="Capa_1" enable-background="new 0 0 512 512" height="512" viewBox="0 0 512 512" width="512" xmlns="http://www.w3.org/2000/svg"><g><path d="m151 285.015v211.985c0 5.537 3.047 10.62 7.925 13.228s10.796 2.314 15.396-.747l36.679-24.451 30-65.354v-107.211l-30-27.45z" fill="#ff495a"/><path d="m301 285.015-30 34.422v127.493l30 38.101 36.68 24.45c4.651 3.1 10.585 3.327 15.396.747 4.877-2.608 7.924-7.691 7.924-13.228v-211.985z" fill="#cd0000"/><path d="m256 285.015h-45v200.015l45-29.998 45 29.998v-200.015z" fill="#fe810d"/><path d="m301 285.015h-45v170.017l45 29.998z" fill="#ff495a"/><circle cx="256" cy="165" fill="#ffda2d" r="165"/><path d="m421 165c0-90.981-74.019-165-165-165v330c90.981 0 165-74.019 165-165z" fill="#fdbf00"/><path d="m355.829 123.662c-4.614-3.999-11.162-4.775-16.538-2.08l-46.582 23.291-23.291-46.582c-2.549-5.083-7.983-7.625-13.418-7.625s-10.869 2.542-13.418 7.625l-23.291 46.582-46.582-23.291c-5.42-2.695-11.968-1.919-16.538 2.08-4.585 3.984-6.313 10.327-4.395 16.084l30 90c2.036 6.123 7.764 10.254 14.224 10.254h60 60c6.46 0 12.188-4.131 14.224-10.254l30-90c1.918-5.757.19-12.1-4.395-16.084z" fill="#fdbf00"/><path d="m316 240c6.46 0 12.188-4.131 14.224-10.254l30-90c1.919-5.757.19-12.1-4.395-16.084-4.614-3.999-11.162-4.775-16.538-2.08l-46.582 23.291-23.291-46.582c-2.549-5.083-7.983-7.625-13.418-7.625v149.334z" fill="#fe810d"/></g></svg>