<svg xmlns="http://www.w3.org/2000/svg" xmlns:xlink="http://www.w3.org/1999/xlink" width="26.92" height="20.19" viewBox="0 0 26.92 20.19">
  <defs>
    <linearGradient id="linear-gradient" x1="0.5" x2="0.5" y2="1" gradientUnits="objectBoundingBox">
      <stop offset="0" stop-color="#f44848"/>
      <stop offset="1" stop-color="#ee31da" stop-opacity="0.255"/>
    </linearGradient>
  </defs>
  <path id="Icon_awesome-car" data-name="Icon awesome-car" d="M26.289,10.389H23.141L22.266,8.2A5.859,5.859,0,0,0,16.8,4.5H10.122A5.861,5.861,0,0,0,4.654,8.2l-.875,2.187H.632a.631.631,0,0,0-.612.784l.315,1.262a.631.631,0,0,0,.612.478H2A3.342,3.342,0,0,0,.841,15.436V17.96a3.338,3.338,0,0,0,.841,2.2v2.843A1.683,1.683,0,0,0,3.365,24.69H5.048A1.683,1.683,0,0,0,6.73,23.008V21.325H20.19v1.683a1.683,1.683,0,0,0,1.683,1.683h1.683a1.683,1.683,0,0,0,1.683-1.683V20.165a3.336,3.336,0,0,0,.841-2.2V15.436a3.343,3.343,0,0,0-1.16-2.524h1.055a.631.631,0,0,0,.612-.478l.315-1.262a.631.631,0,0,0-.613-.784ZM7.778,9.451a2.524,2.524,0,0,1,2.343-1.586H16.8a2.524,2.524,0,0,1,2.343,1.586l1.048,2.62H6.73l1.048-2.62Zm-2.73,8.5a1.587,1.587,0,0,1-1.683-1.677A1.587,1.587,0,0,1,5.048,14.6a3.237,3.237,0,0,1,2.524,2.516C7.571,18.117,6.057,17.95,5.048,17.95Zm16.825,0c-1.01,0-2.524.168-2.524-.839A3.237,3.237,0,0,1,21.873,14.6a1.587,1.587,0,0,1,1.683,1.677A1.587,1.587,0,0,1,21.873,17.95Z" transform="translate(0 -4.5)" fill="url(#linear-gradient)"/>
</svg>
