<svg xmlns="http://www.w3.org/2000/svg" width="27" height="20.05" viewBox="0 0 27 20.05">
  <g id="Icon_ionic-ios-menu" data-name="Icon ionic-ios-menu" transform="translate(-4.5 -10.125)">
    <path id="Pfad_1" data-name="Pfad 1" d="M30.375,12.375H5.625A1.128,1.128,0,0,1,4.5,11.25h0a1.128,1.128,0,0,1,1.125-1.125h24.75A1.128,1.128,0,0,1,31.5,11.25h0A1.128,1.128,0,0,1,30.375,12.375Z" fill="#fff"/>
    <path id="Pfad_2" data-name="Pfad 2" d="M30.375,19.125H5.625A1.128,1.128,0,0,1,4.5,18h0a1.128,1.128,0,0,1,1.125-1.125h24.75A1.128,1.128,0,0,1,31.5,18h0A1.128,1.128,0,0,1,30.375,19.125Z" transform="translate(0 2.15)" fill="#fff"/>
    <path id="Pfad_3" data-name="Pfad 3" d="M30.375,25.875H5.625A1.128,1.128,0,0,1,4.5,24.75h0a1.128,1.128,0,0,1,1.125-1.125h24.75A1.128,1.128,0,0,1,31.5,24.75h0A1.128,1.128,0,0,1,30.375,25.875Z" transform="translate(0 4.3)" fill="#fff"/>
  </g>
</svg>
