<?xml version="1.0" encoding="UTF-8"?>
<svg id="Ebene_2" data-name="Ebene 2" xmlns="http://www.w3.org/2000/svg" viewBox="0 0 655.2 151.02">
  <defs>
    <style>
      .cls-1 {
        fill: #fff;
        stroke-width: 0px;
      }
    </style>
  </defs>
  <g id="Ebene_1-2" data-name="Ebene 1">
    <g>
      <path class="cls-1" d="M5.01,50.64c3.34-6.24,7.93-11.07,13.77-14.51,5.84-3.44,12.35-5.16,19.52-5.16s13.21,1.52,18.42,4.57c5.21,3.04,9.08,6.88,11.64,11.49v-14.73s13.55,0,13.55,0v80.74s-13.55,0-13.55,0v-15.03c-2.65,4.72-6.61,8.62-11.86,11.71-5.26,3.1-11.37,4.64-18.34,4.64s-13.65-1.77-19.45-5.3c-5.8-3.53-10.36-8.49-13.7-14.88C1.67,87.8,0,80.53,0,72.38c0-8.25,1.67-15.49,5.01-21.73ZM64.68,56.6c-2.46-4.52-5.77-7.98-9.95-10.39-4.18-2.41-8.77-3.61-13.78-3.61s-9.58,1.18-13.7,3.54c-4.12,2.36-7.42,5.8-9.87,10.31-2.46,4.52-3.68,9.82-3.68,15.91s1.23,11.57,3.69,16.13c2.45,4.57,5.75,8.05,9.87,10.46,4.13,2.41,8.69,3.61,13.7,3.61s9.6-1.2,13.78-3.61c4.17-2.41,7.49-5.89,9.94-10.46,2.45-4.57,3.68-9.89,3.68-15.99,0-6.09-1.23-11.39-3.69-15.91Z"/>
      <path class="cls-1" d="M130.09,35.53c5.3-3.04,11.34-4.57,18.12-4.57,7.27,0,13.8,1.72,19.6,5.15,5.79,3.44,10.36,8.28,13.7,14.51,3.34,6.24,5.01,13.48,5.01,21.73s-1.67,15.42-5.01,21.81c-3.34,6.39-7.93,11.35-13.77,14.88-5.84,3.54-12.35,5.31-19.52,5.31-6.98,0-13.09-1.52-18.34-4.57-5.26-3.04-9.21-6.92-11.86-11.64v14.88s-13.41,0-13.41,0V4s13.4,0,13.4,0v43.32c2.75-4.81,6.78-8.74,12.08-11.79ZM169.14,56.45c-2.46-4.52-5.77-7.96-9.95-10.31-4.18-2.36-8.77-3.54-13.78-3.53s-9.45,1.2-13.63,3.61c-4.18,2.41-7.51,5.89-10.02,10.46-2.5,4.57-3.76,9.85-3.76,15.84,0,6.09,1.25,11.42,3.76,15.99,2.51,4.57,5.84,8.05,10.02,10.46,4.17,2.41,8.72,3.61,13.63,3.61s9.6-1.2,13.78-3.61c4.17-2.41,7.49-5.89,9.94-10.46,2.45-4.57,3.68-9.95,3.68-16.13s-1.23-11.39-3.68-15.91Z"/>
      <path class="cls-1" d="M310.44,111.17c-4.91-2.11-8.79-5.06-11.64-8.84-2.85-3.78-4.42-8.13-4.72-13.04h13.85c.39,4.03,2.28,7.32,5.67,9.87,3.39,2.56,7.83,3.83,13.33,3.83,5.11,0,9.13-1.13,12.08-3.39,2.95-2.26,4.42-5.11,4.42-8.55s-1.57-6.16-4.72-7.88c-3.14-1.72-8.01-3.41-14.59-5.08-5.99-1.57-10.88-3.17-14.66-4.79-3.78-1.62-7.02-4.03-9.72-7.22-2.7-3.19-4.05-7.39-4.05-12.6,0-4.12,1.23-7.91,3.68-11.35,2.45-3.44,5.94-6.16,10.46-8.18,4.52-2.01,9.67-3.02,15.47-3.02,8.94,0,16.16,2.26,21.66,6.78,5.5,4.52,8.45,10.71,8.84,18.56h-13.41c-.3-4.22-1.99-7.61-5.08-10.17-3.09-2.55-7.24-3.83-12.45-3.83-4.81,0-8.64,1.03-11.49,3.09-2.85,2.06-4.27,4.77-4.27,8.1,0,2.65.86,4.84,2.58,6.56,1.72,1.72,3.88,3.09,6.48,4.12,2.6,1.03,6.21,2.19,10.83,3.46,5.79,1.57,10.51,3.12,14.14,4.64,3.63,1.52,6.75,3.81,9.36,6.85,2.6,3.04,3.95,7.02,4.05,11.93,0,4.42-1.23,8.4-3.68,11.93-2.46,3.54-5.92,6.31-10.39,8.33-4.47,2.01-9.6,3.02-15.4,3.02-6.19,0-11.74-1.06-16.65-3.17Z"/>
      <path class="cls-1" d="M444.95,32.26l-48.61,118.76h-13.85s15.91-38.9,15.91-38.9l-32.57-79.85h14.88s25.35,65.41,25.35,65.41l25.04-65.42h13.85Z"/>
      <path class="cls-1" d="M521.56,39.69c6.09,5.94,9.14,14.51,9.14,25.71v47.59s-13.26,0-13.26,0v-45.67c0-8.05-2.02-14.22-6.05-18.49-4.03-4.27-9.53-6.41-16.5-6.41s-12.7,2.21-16.87,6.63c-4.18,4.42-6.26,10.86-6.26,19.3v44.64s-13.4,0-13.4,0V32.26s13.4,0,13.4,0v11.49c2.65-4.13,6.26-7.32,10.83-9.58,4.57-2.26,9.6-3.39,15.1-3.39,9.82,0,17.78,2.97,23.87,8.91Z"/>
      <path class="cls-1" d="M552.65,50.59c3.34-6.24,7.98-11.07,13.92-14.51,5.94-3.44,12.74-5.16,20.41-5.16,9.92,0,18.1,2.41,24.53,7.22,6.43,4.81,10.68,11.49,12.75,20.04h-14.44c-1.38-4.91-4.05-8.79-8.03-11.64-3.98-2.85-8.91-4.27-14.81-4.27-7.66,0-13.85,2.63-18.56,7.88-4.71,5.26-7.07,12.7-7.07,22.32,0,9.72,2.36,17.24,7.07,22.54,4.71,5.3,10.9,7.96,18.56,7.95,5.89,0,10.8-1.38,14.73-4.13,3.93-2.75,6.63-6.68,8.1-11.79h14.44c-2.16,8.25-6.48,14.86-12.96,19.82-6.48,4.96-14.59,7.44-24.31,7.44-7.66,0-14.46-1.72-20.41-5.16-5.94-3.44-10.59-8.3-13.92-14.58-3.34-6.28-5.01-13.65-5.01-22.1s1.67-15.64,5.01-21.88Z"/>
      <path class="cls-1" d="M639.87,111.21c-1.77-1.77-2.65-3.93-2.65-6.48s.88-4.71,2.65-6.48c1.77-1.77,3.93-2.65,6.48-2.65s4.54.88,6.26,2.65c1.72,1.77,2.58,3.93,2.58,6.48s-.86,4.71-2.58,6.48c-1.72,1.77-3.81,2.65-6.26,2.65s-4.71-.88-6.48-2.65Z"/>
      <path class="cls-1" d="M265.69,61.75c.95,3.22,1.43,6.8,1.43,10.74,0,6.48-1.3,11.99-3.9,16.5-2.6,4.52-6.02,7.91-10.24,10.17-4.22,2.26-8.74,3.39-13.55,3.39s-9.23-1.1-13.26-3.31c-4.03-2.21-7.25-5.57-9.65-10.09-2.41-4.52-3.61-10.07-3.61-16.65s1.23-11.98,3.68-16.5c2.45-4.52,5.72-7.88,9.8-10.09,4.07-2.21,8.57-3.32,13.48-3.32,1.86,0,3.67.17,5.43.5l9.65-9.65c-4.62-1.64-9.59-2.49-14.93-2.49-7.66,0-14.59,1.7-20.77,5.09s-11.07,8.25-14.66,14.59c-3.59,6.34-5.38,13.63-5.38,21.88,0,8.35,1.74,15.69,5.23,22.03,3.49,6.33,8.3,11.22,14.44,14.66,6.14,3.44,12.99,5.16,20.55,5.16s14.63-1.72,20.92-5.16c6.28-3.44,11.27-8.33,14.95-14.66,3.68-6.34,5.52-13.68,5.52-22.03,0-7.93-1.64-14.92-4.88-21l-10.25,10.25Z"/>
      <path class="cls-1" d="M278.13,37.75l-7.78-7.78-24.93,24.93c-1.68-.58-3.46-.9-5.32-.9-9.66,0-17.5,8.51-17.5,19s7.84,19,17.5,19,17.5-8.51,17.5-19c0-4.23-1.29-8.12-3.44-11.28l23.97-23.97Z"/>
      <circle class="cls-1" cx="277.09" cy="30.5" r="11.5"/>
      <circle class="cls-1" cx="270.59" cy="6" r="6"/>
    </g>
  </g>
</svg>