<svg xmlns="http://www.w3.org/2000/svg" xmlns:xlink="http://www.w3.org/1999/xlink" width="355.513" height="81.949" viewBox="0 0 355.513 81.949"><defs><style>.a{fill:none;}.b{fill:#fff;}.c{clip-path:url(#a);}.d{clip-path:url(#b);}</style><clipPath id="a"><rect class="a" width="355.513" height="81.949"/></clipPath><clipPath id="b"><path class="b" d="M234.98,43.5a8.8,8.8,0,0,0-2.887-.488c-5.244,0-9.5,4.616-9.5,10.31s4.251,10.31,9.5,10.31,9.5-4.616,9.5-10.31a10.844,10.844,0,0,0-1.867-6.121l13.007-13.007-4.22-4.221Z" transform="translate(-222.597 -29.968)"/></clipPath></defs><g transform="translate(-316.116 -415)"><g transform="translate(316.116 415)"><g class="c"><path class="b" d="M2.718,41.623a19.721,19.721,0,0,1,7.475-7.874,20.5,20.5,0,0,1,10.593-2.8,19.448,19.448,0,0,1,9.993,2.479,16.527,16.527,0,0,1,6.316,6.236v-8h7.355V75.48H37.095V67.325a17.147,17.147,0,0,1-6.436,6.356A19.25,19.25,0,0,1,20.705,76.2a19.859,19.859,0,0,1-10.553-2.879,20.164,20.164,0,0,1-7.435-8.075A25.137,25.137,0,0,1,0,53.415,24.609,24.609,0,0,1,2.718,41.623M35.1,44.86a14.13,14.13,0,0,0-5.4-5.636,14.705,14.705,0,0,0-7.475-1.959,14.721,14.721,0,0,0-7.435,1.919,13.915,13.915,0,0,0-5.356,5.6,17.805,17.805,0,0,0-2,8.635,18.212,18.212,0,0,0,2,8.753,14.127,14.127,0,0,0,5.356,5.676A14.472,14.472,0,0,0,22.225,69.8,14.689,14.689,0,0,0,29.7,67.845a14.055,14.055,0,0,0,5.4-5.676,18.052,18.052,0,0,0,2-8.674,17.824,17.824,0,0,0-2-8.634" transform="translate(0 -14.156)"/><path class="b" d="M118.439,21.1a19.4,19.4,0,0,1,9.833-2.479,20.45,20.45,0,0,1,10.633,2.8,19.82,19.82,0,0,1,7.435,7.875,24.619,24.619,0,0,1,2.718,11.792,25.154,25.154,0,0,1-2.718,11.832,19.931,19.931,0,0,1-18.068,10.953,19.485,19.485,0,0,1-9.953-2.478,16.845,16.845,0,0,1-6.435-6.316v8.075h-7.275V3.987h7.275v23.5a17.2,17.2,0,0,1,6.555-6.4m21.186,11.352a13.846,13.846,0,0,0-5.4-5.6,14.941,14.941,0,0,0-7.475-1.919,14.546,14.546,0,0,0-7.4,1.959,14.32,14.32,0,0,0-5.436,5.676,17.591,17.591,0,0,0-2.038,8.594,17.759,17.759,0,0,0,2.038,8.674,14.316,14.316,0,0,0,5.436,5.676,14.54,14.54,0,0,0,7.4,1.958,14.7,14.7,0,0,0,7.475-1.958,14.059,14.059,0,0,0,5.4-5.676,18.231,18.231,0,0,0,2-8.754,17.825,17.825,0,0,0-2-8.635" transform="translate(-47.847 -1.824)"/><path class="b" d="M302.954,74.48a15.217,15.217,0,0,1-6.315-4.8,12.749,12.749,0,0,1-2.558-7.075H301.6a7.37,7.37,0,0,0,3.078,5.356,11.7,11.7,0,0,0,7.235,2.078,10.528,10.528,0,0,0,6.555-1.838,5.619,5.619,0,0,0,2.4-4.637A4.574,4.574,0,0,0,318.3,59.29a36.045,36.045,0,0,0-7.915-2.759,57.941,57.941,0,0,1-7.955-2.6,14.109,14.109,0,0,1-5.276-3.918,10.218,10.218,0,0,1-2.2-6.835,10.36,10.36,0,0,1,2-6.156,13.546,13.546,0,0,1,5.676-4.437,20.424,20.424,0,0,1,8.394-1.639q7.274,0,11.752,3.678a13.252,13.252,0,0,1,4.8,10.073H320.3a7.524,7.524,0,0,0-2.758-5.517,10.29,10.29,0,0,0-6.755-2.078,10.42,10.42,0,0,0-6.236,1.678,5.188,5.188,0,0,0-2.319,4.4,4.818,4.818,0,0,0,1.4,3.558,10.2,10.2,0,0,0,3.518,2.238,60.485,60.485,0,0,0,5.876,1.879,63.377,63.377,0,0,1,7.675,2.518,13.443,13.443,0,0,1,5.077,3.718,9.945,9.945,0,0,1,2.2,6.475,11.092,11.092,0,0,1-2,6.475,13.314,13.314,0,0,1-5.637,4.517,20.153,20.153,0,0,1-8.354,1.639,22.668,22.668,0,0,1-9.034-1.718" transform="translate(-134.51 -14.156)"/><path class="b" d="M408.761,32.275,382.379,96.711h-7.515L383.5,75.606,365.83,32.275H373.9l13.751,35.5,13.59-35.5Z" transform="translate(-167.328 -14.762)"/><path class="b" d="M492.652,35.639q4.956,4.838,4.957,13.95V75.412h-7.195V50.628q0-6.554-3.278-10.032a11.71,11.71,0,0,0-8.954-3.478,11.991,11.991,0,0,0-9.154,3.6q-3.4,3.6-3.4,10.472V75.412h-7.275V31.6h7.275v6.236a14.446,14.446,0,0,1,5.876-5.2A18.229,18.229,0,0,1,479.7,30.8q7.994,0,12.951,4.837" transform="translate(-209.648 -14.089)"/><path class="b" d="M550.358,41.623a19.558,19.558,0,0,1,7.555-7.875,21.716,21.716,0,0,1,11.072-2.8q8.074,0,13.311,3.917a18.5,18.5,0,0,1,6.916,10.873h-7.835a11.257,11.257,0,0,0-4.357-6.316,13.45,13.45,0,0,0-8.034-2.318,12.891,12.891,0,0,0-10.073,4.277q-3.838,4.277-3.837,12.112,0,7.915,3.837,12.232a12.832,12.832,0,0,0,10.073,4.317A13.6,13.6,0,0,0,576.98,67.8a11.347,11.347,0,0,0,4.4-6.4h7.835a19.273,19.273,0,0,1-7.035,10.752Q576.9,76.2,568.985,76.2a21.7,21.7,0,0,1-11.072-2.8,19.471,19.471,0,0,1-7.555-7.914,25.193,25.193,0,0,1-2.718-11.992,24.786,24.786,0,0,1,2.718-11.872" transform="translate(-250.486 -14.156)"/><path class="b" d="M638.658,104.1a4.957,4.957,0,0,1,3.518-8.474,4.564,4.564,0,0,1,3.4,1.439,5.123,5.123,0,0,1,0,7.035,4.564,4.564,0,0,1-3.4,1.438,4.783,4.783,0,0,1-3.518-1.438" transform="translate(-291.459 -43.74)"/><path class="b" d="M235.276,47.663a20.608,20.608,0,0,1,.774,5.83,17.672,17.672,0,0,1-2.118,8.954,13.994,13.994,0,0,1-5.556,5.516,15.358,15.358,0,0,1-7.355,1.838,14.709,14.709,0,0,1-7.2-1.8,13.015,13.015,0,0,1-5.236-5.477,19.012,19.012,0,0,1-1.959-9.034,18.515,18.515,0,0,1,2-8.954,13.181,13.181,0,0,1,5.316-5.477,15.1,15.1,0,0,1,7.315-1.8,15.923,15.923,0,0,1,2.944.271l5.237-5.237a23.981,23.981,0,0,0-8.1-1.349,23.074,23.074,0,0,0-11.272,2.759,20.1,20.1,0,0,0-7.955,7.914A23.676,23.676,0,0,0,199.2,53.494a24.388,24.388,0,0,0,2.838,11.952,19.907,19.907,0,0,0,7.835,7.954,22.415,22.415,0,0,0,11.153,2.8,23.255,23.255,0,0,0,11.352-2.8,20.78,20.78,0,0,0,8.115-7.954,23.348,23.348,0,0,0,3-11.952A23.84,23.84,0,0,0,240.839,42.1Z" transform="translate(-91.111 -14.156)"/></g></g><g transform="translate(436.898 431.261)"><g class="d"><rect class="b" width="30.132" height="33.659" transform="translate(0 0)"/></g></g><path class="b" d="M265.6,25.24A6.24,6.24,0,1,0,271.836,19a6.239,6.239,0,0,0-6.239,6.24" transform="translate(194.634 406.31)"/><path class="b" d="M267.853,0a3.256,3.256,0,1,0,3.256,3.255A3.255,3.255,0,0,0,267.853,0Z" transform="translate(195.091 415)"/></g></svg>