<?xml version="1.0" encoding="utf-8"?>
<!-- Generator: Adobe Illustrator 27.7.0, SVG Export Plug-In . SVG Version: 6.00 Build 0)  -->
<svg version="1.1" id="Ebene_2_00000057115425868846695460000010601267295097945276_"
	 xmlns="http://www.w3.org/2000/svg" xmlns:xlink="http://www.w3.org/1999/xlink" x="0px" y="0px" viewBox="0 0 355.5 81.9"
	 style="enable-background:new 0 0 355.5 81.9;" xml:space="preserve">
<style type="text/css">
	.st0{clip-path:url(#SVGID_00000030455173559230361110000012170812791372114349_);}
	.st1{fill:#FFFFFF;}
	.st2{fill:url(#SVGID_00000060735111802618025650000002493476024808967063_);}
	.st3{clip-path:url(#SVGID_00000057861808127997236270000015783041765082333355_);}
	.st4{fill:url(#SVGID_00000128466754814239379390000012159963596380125863_);}
	.st5{fill:url(#SVGID_00000165912632476471492890000017822116804115940025_);}
	.st6{fill:url(#SVGID_00000103964032123334601590000000576020601030121346_);}
</style>
<g id="Ebene_1-2">
	<g>
		<g>
			<defs>
				<rect id="SVGID_1_" width="355.5" height="81.9"/>
			</defs>
			<clipPath id="SVGID_00000106835358706255559560000002482519516321842095_">
				<use xlink:href="#SVGID_1_"  style="overflow:visible;"/>
			</clipPath>
			<g style="clip-path:url(#SVGID_00000106835358706255559560000002482519516321842095_);">
				<g>
					<path class="st1" d="M2.7,27.5c1.7-3.3,4.3-6,7.5-7.9c3.2-1.9,6.9-2.9,10.6-2.8c3.5-0.1,7,0.8,10,2.5c2.6,1.5,4.8,3.6,6.3,6.2
						v-8h7.3v43.8h-7.3v-8.2c-1.5,2.7-3.8,4.8-6.4,6.4c-3,1.7-6.5,2.6-9.9,2.5c-3.7,0-7.4-1-10.6-2.9c-3.2-2-5.8-4.8-7.4-8.1
						C0.9,47.4-0.1,43.4,0,39.3C-0.1,35.2,0.8,31.1,2.7,27.5 M35.1,30.7c-1.2-2.4-3.1-4.3-5.4-5.6c-2.3-1.3-4.9-2-7.5-2
						c-2.6,0-5.2,0.6-7.4,1.9c-2.3,1.3-4.1,3.3-5.4,5.6c-1.4,2.7-2.1,5.6-2,8.6c-0.1,3,0.6,6,2,8.8c1.2,2.4,3.1,4.3,5.4,5.7
						c2.3,1.3,4.8,2,7.4,2c2.6,0,5.2-0.7,7.5-2c2.3-1.3,4.2-3.3,5.4-5.7c1.4-2.7,2.1-5.7,2-8.7C37.2,36.4,36.5,33.4,35.1,30.7"/>
					<path class="st1" d="M70.6,19.3c3-1.7,6.4-2.5,9.8-2.5c3.7,0,7.4,0.9,10.6,2.8c3.2,1.9,5.7,4.6,7.4,7.9
						c1.9,3.6,2.8,7.7,2.7,11.8c0.1,4.1-0.9,8.2-2.7,11.8C95,57.9,88,62.2,80.4,62c-3.5,0.1-6.9-0.8-9.9-2.5
						c-2.7-1.5-4.9-3.7-6.4-6.3v8.1h-7.3V2.2H64v23.5C65.6,23,67.9,20.8,70.6,19.3 M91.8,30.6c-1.2-2.3-3.1-4.3-5.4-5.6
						c-2.3-1.3-4.9-1.9-7.5-1.9c-2.6,0-5.2,0.7-7.4,2c-2.3,1.4-4.2,3.3-5.4,5.7c-1.4,2.6-2.1,5.6-2,8.6c-0.1,3,0.6,6,2,8.7
						c1.2,2.4,3.1,4.3,5.4,5.7c2.2,1.3,4.8,2,7.4,2c2.6,0,5.2-0.7,7.5-2c2.3-1.3,4.2-3.3,5.4-5.7c1.4-2.7,2.1-5.7,2-8.8
						C93.8,36.2,93.2,33.3,91.8,30.6"/>
					<path class="st1" d="M168.4,60.3c-2.5-1-4.7-2.7-6.3-4.8c-1.5-2-2.4-4.5-2.6-7.1h7.5c0.2,2.2,1.3,4.1,3.1,5.4
						c2.1,1.5,4.7,2.2,7.2,2.1c2.3,0.1,4.6-0.5,6.6-1.8c1.5-1.1,2.4-2.8,2.4-4.6c0.1-1.8-0.9-3.5-2.6-4.3c-2.5-1.2-5.2-2.2-7.9-2.8
						c-2.7-0.7-5.4-1.5-7.9-2.6c-2-0.9-3.9-2.2-5.3-3.9c-1.5-1.9-2.3-4.4-2.2-6.8c0-2.2,0.7-4.4,2-6.2c1.5-2,3.4-3.5,5.7-4.4
						c2.6-1.1,5.5-1.7,8.4-1.6c4.9,0,8.8,1.2,11.8,3.7c3,2.5,4.8,6.2,4.8,10.1h-7.3c-0.1-2.1-1.1-4.2-2.8-5.5
						c-1.9-1.5-4.3-2.2-6.8-2.1c-2.2-0.1-4.4,0.5-6.2,1.7c-1.5,1-2.4,2.6-2.3,4.4c0,1.3,0.5,2.6,1.4,3.6c1,1,2.2,1.7,3.5,2.2
						c1.9,0.7,3.9,1.3,5.9,1.9c2.6,0.7,5.2,1.5,7.7,2.5c2,0.8,3.7,2.1,5.1,3.7c1.5,1.8,2.3,4.1,2.2,6.5c0,2.3-0.7,4.6-2,6.5
						c-1.4,2-3.4,3.6-5.6,4.5c-2.6,1.1-5.5,1.7-8.4,1.6C174.3,62.1,171.3,61.5,168.4,60.3"/>
					<path class="st1" d="M241.4,17.5L215,82h-7.5l8.6-21.1l-17.7-43.3h8.1L220.3,53l13.6-35.5L241.4,17.5L241.4,17.5z"/>
					<path class="st1" d="M283,21.5c3.3,3.2,5,7.9,5,14v25.8h-7.2V36.5c0-4.4-1.1-7.7-3.3-10c-2.4-2.4-5.6-3.6-9-3.5
						c-3.4-0.2-6.8,1.1-9.1,3.6c-2.3,2.4-3.4,5.9-3.4,10.5v24.2h-7.3V17.5h7.3v6.2c1.4-2.2,3.5-4,5.9-5.2c2.5-1.2,5.4-1.9,8.2-1.8
						C275.4,16.7,279.7,18.3,283,21.5"/>
					<path class="st1" d="M299.9,27.5c1.7-3.3,4.3-6,7.5-7.9c3.4-1.9,7.2-2.9,11.1-2.8c5.4,0,9.8,1.3,13.3,3.9
						c3.5,2.7,6,6.5,6.9,10.9h-7.8c-0.7-2.5-2.2-4.8-4.4-6.3c-2.4-1.6-5.2-2.4-8-2.3c-3.8-0.1-7.5,1.4-10.1,4.3
						c-2.6,2.9-3.8,6.9-3.8,12.1c0,5.3,1.3,9.3,3.8,12.2c2.5,2.9,6.2,4.5,10.1,4.3c2.8,0.1,5.6-0.7,8-2.2c2.2-1.5,3.7-3.8,4.4-6.4
						h7.8c-1,4.3-3.5,8.1-7,10.8c-3.5,2.7-7.9,4-13.2,4c-3.9,0.1-7.7-0.9-11.1-2.8c-3.2-1.9-5.8-4.6-7.5-7.9
						c-1.9-3.7-2.8-7.8-2.7-12C297,35.2,298,31.1,299.9,27.5"/>
					<path class="st1" d="M347.2,60.4c-1.9-1.9-2-5.1,0-7c0.9-0.9,2.2-1.5,3.5-1.5c1.3,0,2.5,0.5,3.4,1.4c1.9,2,1.9,5.1,0,7
						c-0.9,0.9-2.1,1.5-3.4,1.4C349.4,61.8,348.1,61.3,347.2,60.4"/>
					<path class="st1" d="M144.2,33.5c0.5,1.9,0.8,3.9,0.8,5.8c0.1,3.1-0.6,6.2-2.1,9c-1.3,2.3-3.2,4.2-5.6,5.5
						c-2.3,1.2-4.8,1.8-7.4,1.8c-2.5,0-5-0.6-7.2-1.8c-2.2-1.3-4.1-3.2-5.2-5.5c-1.4-2.8-2.1-5.9-2-9c-0.1-3.1,0.6-6.2,2-9
						c1.2-2.3,3-4.2,5.3-5.5c2.2-1.2,4.8-1.8,7.3-1.8c1,0,2,0.1,2.9,0.3l5.2-5.2c-2.6-0.9-5.3-1.4-8.1-1.4
						c-3.9-0.1-7.8,0.9-11.3,2.8c-3.3,1.8-6.1,4.6-8,7.9c-2,3.6-3,7.7-2.9,11.9c-0.1,4.2,0.9,8.3,2.8,12c1.8,3.3,4.5,6.1,7.8,8
						c3.4,1.9,7.3,2.8,11.1,2.8c4,0,7.9-0.9,11.4-2.8c3.4-1.8,6.2-4.6,8.1-8c2.1-3.6,3.1-7.8,3-12c0.1-4-0.8-7.9-2.6-11.4
						L144.2,33.5L144.2,33.5z"/>
				</g>
			</g>
		</g>
		<g>
			
				<linearGradient id="SVGID_00000075883567515340972670000014837797046309423747_" gradientUnits="userSpaceOnUse" x1="120.78" y1="50.91" x2="150.92" y2="50.91" gradientTransform="matrix(1 0 0 -1 0 84)">
				<stop  offset="0" style="stop-color:#DD45D6"/>
				<stop  offset="1" style="stop-color:#9444E0"/>
			</linearGradient>
			<path style="fill:url(#SVGID_00000075883567515340972670000014837797046309423747_);" d="M133.2,29.8c-0.9-0.3-1.9-0.5-2.9-0.5
				c-5.2,0-9.5,4.6-9.5,10.3s4.2,10.3,9.5,10.3s9.5-4.6,9.5-10.3c0-2.2-0.6-4.3-1.9-6.1l13-13l-4.2-4.2L133.2,29.8z"/>
			<g>
				<defs>
					<path id="SVGID_00000003096764946065746810000012098631421539350454_" d="M133.2,29.8c-0.9-0.3-1.9-0.5-2.9-0.5
						c-5.2,0-9.5,4.6-9.5,10.3s4.2,10.3,9.5,10.3s9.5-4.6,9.5-10.3c0-2.2-0.6-4.3-1.9-6.1l13-13l-4.2-4.2L133.2,29.8z"/>
				</defs>
				<clipPath id="SVGID_00000142161108992328764440000013620488559694183083_">
					<use xlink:href="#SVGID_00000003096764946065746810000012098631421539350454_"  style="overflow:visible;"/>
				</clipPath>
				<g style="clip-path:url(#SVGID_00000142161108992328764440000013620488559694183083_);">
					
						<linearGradient id="SVGID_00000068641662450763809510000011695206446084268420_" gradientUnits="userSpaceOnUse" x1="120.78" y1="50.91" x2="150.91" y2="50.91" gradientTransform="matrix(1 0 0 -1 0 84)">
						<stop  offset="0" style="stop-color:#DD45D6"/>
						<stop  offset="1" style="stop-color:#9444E0"/>
					</linearGradient>
					
						<rect x="120.8" y="16.3" style="fill:url(#SVGID_00000068641662450763809510000011695206446084268420_);" width="30.1" height="33.7"/>
				</g>
			</g>
		</g>
		
			<linearGradient id="SVGID_00000182505364758106032520000002313130054330458772_" gradientUnits="userSpaceOnUse" x1="144.12" y1="67.45" x2="156.6" y2="67.45" gradientTransform="matrix(1 0 0 -1 0 84)">
			<stop  offset="0" style="stop-color:#DD45D6"/>
			<stop  offset="1" style="stop-color:#9444E0"/>
		</linearGradient>
		<path style="fill:url(#SVGID_00000182505364758106032520000002313130054330458772_);" d="M144.1,16.5c0,3.5,2.8,6.2,6.2,6.2
			c3.4,0,6.2-2.8,6.2-6.2s-2.8-6.2-6.2-6.2l0,0C146.9,10.3,144.1,13.1,144.1,16.5L144.1,16.5"/>
		
			<linearGradient id="SVGID_00000057843621682780657480000007808577747926699422_" gradientUnits="userSpaceOnUse" x1="143.57" y1="80.74" x2="150.08" y2="80.74" gradientTransform="matrix(1 0 0 -1 0 84)">
			<stop  offset="0" style="stop-color:#DD45D6"/>
			<stop  offset="1" style="stop-color:#9444E0"/>
		</linearGradient>
		<path style="fill:url(#SVGID_00000057843621682780657480000007808577747926699422_);" d="M146.8,0c-1.8,0-3.3,1.5-3.3,3.3
			s1.5,3.3,3.3,3.3c1.8,0,3.3-1.5,3.3-3.3l0,0C150.1,1.5,148.6,0,146.8,0L146.8,0z"/>
	</g>
</g>
</svg>
