<svg xmlns="http://www.w3.org/2000/svg" xmlns:xlink="http://www.w3.org/1999/xlink" width="285" height="143" viewBox="0 0 285 143">
  <defs>
    <clipPath id="clip-path">
      <rect id="Rechteck_434" data-name="Rechteck 434" width="285" height="143" transform="translate(1498 2215)" fill="#fff"/>
    </clipPath>
    <clipPath id="clip-path-2">
      <rect id="Rechteck_436" data-name="Rechteck 436" width="143" height="143" transform="translate(1518 2197)" fill="#fff"/>
    </clipPath>
    <linearGradient id="linear-gradient" x1="0.5" x2="-0.031" y2="0.556" gradientUnits="objectBoundingBox">
      <stop offset="0" stop-color="#f49e48" stop-opacity="0"/>
      <stop offset="1" stop-color="#5145dd"/>
    </linearGradient>
  </defs>
  <g id="Gruppe_744" data-name="Gruppe 744" transform="translate(-1518 -2005)">
    <g id="Gruppe_maskieren_8" data-name="Gruppe maskieren 8" transform="translate(20 -210)" clip-path="url(#clip-path)">
      <path id="Differenzmenge_3" data-name="Differenzmenge 3" d="M142.5,285a143.551,143.551,0,0,1-28.719-2.9,141.719,141.719,0,0,1-50.954-21.442,142.918,142.918,0,0,1-51.628-62.7,141.782,141.782,0,0,1-8.3-26.749,143.889,143.889,0,0,1,0-57.437A141.718,141.718,0,0,1,24.337,62.827,142.916,142.916,0,0,1,87.032,11.2a141.781,141.781,0,0,1,26.749-8.3,143.889,143.889,0,0,1,57.437,0,141.719,141.719,0,0,1,50.954,21.442,142.915,142.915,0,0,1,51.629,62.7,141.78,141.78,0,0,1,8.3,26.749,143.887,143.887,0,0,1,0,57.437,141.721,141.721,0,0,1-21.442,50.954,142.917,142.917,0,0,1-62.7,51.629,141.782,141.782,0,0,1-26.749,8.3A143.551,143.551,0,0,1,142.5,285ZM143,8a136,136,0,0,0-27.207,2.743A134.261,134.261,0,0,0,67.52,31.056a135.393,135.393,0,0,0-48.911,59.4,134.326,134.326,0,0,0-7.866,25.341,136.319,136.319,0,0,0,0,54.415A134.261,134.261,0,0,0,31.056,218.48a135.393,135.393,0,0,0,59.4,48.911,134.326,134.326,0,0,0,25.341,7.866,136.319,136.319,0,0,0,54.415,0,134.262,134.262,0,0,0,48.273-20.313,135.393,135.393,0,0,0,48.911-59.4,134.323,134.323,0,0,0,7.866-25.341,136.319,136.319,0,0,0,0-54.415A134.262,134.262,0,0,0,254.944,67.52a135.393,135.393,0,0,0-59.4-48.911,134.322,134.322,0,0,0-25.341-7.866A136,136,0,0,0,143,8Z" transform="translate(1498 2215)" fill="#ee31da"/>
    </g>
    <g id="Gruppe_maskieren_10" data-name="Gruppe maskieren 10" transform="translate(0 -192)" clip-path="url(#clip-path-2)">
      <g id="Gruppe_maskieren_9" data-name="Gruppe maskieren 9" transform="translate(20 -18)" clip-path="url(#clip-path)">
        <path id="Differenzmenge_4" data-name="Differenzmenge 4" d="M142.5,285a143.551,143.551,0,0,1-28.719-2.9,141.719,141.719,0,0,1-50.954-21.442,142.918,142.918,0,0,1-51.628-62.7,141.782,141.782,0,0,1-8.3-26.749,143.889,143.889,0,0,1,0-57.437A141.718,141.718,0,0,1,24.337,62.827,142.916,142.916,0,0,1,87.032,11.2a141.781,141.781,0,0,1,26.749-8.3,143.889,143.889,0,0,1,57.437,0,141.719,141.719,0,0,1,50.954,21.442,142.915,142.915,0,0,1,51.629,62.7,141.78,141.78,0,0,1,8.3,26.749,143.887,143.887,0,0,1,0,57.437,141.721,141.721,0,0,1-21.442,50.954,142.917,142.917,0,0,1-62.7,51.629,141.782,141.782,0,0,1-26.749,8.3A143.551,143.551,0,0,1,142.5,285ZM143,8a136,136,0,0,0-27.207,2.743A134.261,134.261,0,0,0,67.52,31.056a135.393,135.393,0,0,0-48.911,59.4,134.326,134.326,0,0,0-7.866,25.341,136.319,136.319,0,0,0,0,54.415A134.261,134.261,0,0,0,31.056,218.48a135.393,135.393,0,0,0,59.4,48.911,134.326,134.326,0,0,0,25.341,7.866,136.319,136.319,0,0,0,54.415,0,134.262,134.262,0,0,0,48.273-20.313,135.393,135.393,0,0,0,48.911-59.4,134.323,134.323,0,0,0,7.866-25.341,136.319,136.319,0,0,0,0-54.415A134.262,134.262,0,0,0,254.944,67.52a135.393,135.393,0,0,0-59.4-48.911,134.322,134.322,0,0,0-25.341-7.866A136,136,0,0,0,143,8Z" transform="translate(1498 2215)" fill="url(#linear-gradient)"/>
      </g>
    </g>
  </g>
</svg>
